<svg width="266" height="19" viewBox="0 0 266 19" fill="none" xmlns="http://www.w3.org/2000/svg">
<path d="M8.06 15.2C6.75333 15.2 5.54667 14.88 4.44 14.24C3.34667 13.5867 2.47333 12.7133 1.82 11.62C1.18 10.5133 0.86 9.30667 0.86 8C0.86 6.69333 1.18 5.49333 1.82 4.4C2.47333 3.29333 3.34667 2.42 4.44 1.78C5.54667 1.12667 6.75333 0.799999 8.06 0.799999C9.36667 0.799999 10.5667 1.12667 11.66 1.78C12.7667 2.42 13.64 3.29333 14.28 4.4C14.9333 5.49333 15.26 6.69333 15.26 8C15.26 9.30667 14.9333 10.5133 14.28 11.62C13.64 12.7133 12.7667 13.5867 11.66 14.24C10.5667 14.88 9.36667 15.2 8.06 15.2ZM8.06 13.56C9.06 13.56 9.97333 13.3133 10.8 12.82C11.64 12.3133 12.3 11.6333 12.78 10.78C13.2733 9.92667 13.52 9 13.52 8C13.52 7 13.2733 6.07333 12.78 5.22C12.3 4.36667 11.64 3.69333 10.8 3.2C9.97333 2.69333 9.06 2.44 8.06 2.44C7.06 2.44 6.14 2.69333 5.3 3.2C4.47333 3.69333 3.81333 4.36667 3.32 5.22C2.84 6.07333 2.6 7 2.6 8C2.6 9 2.84 9.92667 3.32 10.78C3.81333 11.6333 4.47333 12.3133 5.3 12.82C6.14 13.3133 7.06 13.56 8.06 13.56ZM8.06 11.84C7.03333 11.84 6.22 11.5533 5.62 10.98C5.02 10.4067 4.69333 9.65333 4.64 8.72L4.62 7.98L4.64 7.24C4.69333 6.30667 5.02 5.55333 5.62 4.98C6.22 4.40667 7.03333 4.12 8.06 4.12C8.80667 4.12 9.44 4.24667 9.96 4.5C10.48 4.74 10.8667 5.04667 11.12 5.42C11.3867 5.79333 11.5267 6.17333 11.54 6.56V6.6C11.54 6.72 11.4933 6.82 11.4 6.9C11.32 6.96667 11.22 7 11.1 7H9.7C9.56667 7 9.46 6.96 9.38 6.88C9.31333 6.8 9.25333 6.7 9.2 6.58C9.09333 6.34 8.95333 6.16667 8.78 6.06C8.62 5.95333 8.38 5.9 8.06 5.9C7.63333 5.9 7.34 6.03333 7.18 6.3C7.02 6.55333 6.92667 6.88667 6.9 7.3L6.88 7.98L6.9 8.66C6.92667 9.07333 7.02 9.41333 7.18 9.68C7.34 9.93333 7.63333 10.06 8.06 10.06C8.38 10.06 8.62 10.0067 8.78 9.9C8.95333 9.79333 9.09333 9.62 9.2 9.38C9.25333 9.26 9.31333 9.16 9.38 9.08C9.46 9 9.56667 8.96 9.7 8.96H11.1C11.2333 8.96 11.34 9 11.42 9.08C11.5133 9.16 11.5533 9.26667 11.54 9.4C11.5267 9.78667 11.3867 10.1667 11.12 10.54C10.8667 10.9133 10.48 11.2267 9.96 11.48C9.44 11.72 8.80667 11.84 8.06 11.84ZM22.1725 15C22.0392 15 21.9192 14.9533 21.8125 14.86C21.7192 14.7533 21.6725 14.6333 21.6725 14.5V1.52C21.6725 1.37333 21.7192 1.25333 21.8125 1.16C21.9058 1.05333 22.0258 0.999999 22.1725 0.999999H27.8325C29.5658 0.999999 30.9258 1.39333 31.9125 2.18C32.8992 2.96667 33.3925 4.12 33.3925 5.64C33.3925 7.16 32.8992 8.3 31.9125 9.06C30.9258 9.80667 29.5658 10.18 27.8325 10.18H25.5525V14.5C25.5525 14.6333 25.5058 14.7533 25.4125 14.86C25.3192 14.9533 25.1992 15 25.0525 15H22.1725ZM27.7325 7.32C28.2792 7.32 28.7058 7.18 29.0125 6.9C29.3325 6.60667 29.4925 6.18 29.4925 5.62C29.4925 5.1 29.3458 4.68 29.0525 4.36C28.7725 4.04 28.3325 3.88 27.7325 3.88H25.4925V7.32H27.7325ZM39.9095 15.2C38.2295 15.2 36.9362 14.8133 36.0295 14.04C35.1362 13.2533 34.6495 12.14 34.5695 10.7C34.5562 10.5267 34.5495 10.2267 34.5495 9.8C34.5495 9.37333 34.5562 9.07333 34.5695 8.9C34.6495 7.48667 35.1495 6.38667 36.0695 5.6C37.0029 4.8 38.2829 4.4 39.9095 4.4C41.5362 4.4 42.8095 4.8 43.7295 5.6C44.6629 6.38667 45.1695 7.48667 45.2495 8.9C45.2762 9.24667 45.2895 9.54667 45.2895 9.8C45.2895 10.0533 45.2762 10.3533 45.2495 10.7C45.1695 12.14 44.6762 13.2533 43.7695 14.04C42.8762 14.8133 41.5895 15.2 39.9095 15.2ZM39.9095 12.68C40.4562 12.68 40.8629 12.5133 41.1295 12.18C41.3962 11.8333 41.5495 11.3067 41.5895 10.6C41.6029 10.4667 41.6095 10.2 41.6095 9.8C41.6095 9.4 41.6029 9.13333 41.5895 9C41.5495 8.30667 41.3962 7.78667 41.1295 7.44C40.8629 7.09333 40.4562 6.92 39.9095 6.92C39.3629 6.92 38.9562 7.09333 38.6895 7.44C38.4229 7.78667 38.2695 8.30667 38.2295 9L38.2095 9.8L38.2295 10.6C38.2695 11.3067 38.4229 11.8333 38.6895 12.18C38.9562 12.5133 39.3629 12.68 39.9095 12.68ZM49.8022 15C49.6155 15 49.4689 14.96 49.3622 14.88C49.2689 14.7867 49.1955 14.66 49.1422 14.5L46.2622 5.24L46.2222 5.06C46.2222 4.92667 46.2689 4.82 46.3622 4.74C46.4555 4.64667 46.5622 4.6 46.6822 4.6H48.8622C49.0222 4.6 49.1555 4.64667 49.2622 4.74C49.3689 4.82 49.4355 4.91333 49.4622 5.02L51.1022 10.56L52.8422 5.06C52.8689 4.94 52.9355 4.83333 53.0422 4.74C53.1489 4.64667 53.2889 4.6 53.4622 4.6H54.8422C55.0155 4.6 55.1555 4.64667 55.2622 4.74C55.3689 4.83333 55.4422 4.94 55.4822 5.06L57.2222 10.56L58.8422 5.02C58.8822 4.91333 58.9489 4.82 59.0422 4.74C59.1489 4.64667 59.2822 4.6 59.4422 4.6H61.6222C61.7555 4.6 61.8622 4.64667 61.9422 4.74C62.0355 4.82 62.0822 4.92667 62.0822 5.06C62.0822 5.12667 62.0755 5.18667 62.0622 5.24L59.1622 14.5C59.0689 14.8333 58.8555 15 58.5222 15H56.6222C56.2889 15 56.0622 14.8333 55.9422 14.5L54.1622 9.18L52.3622 14.5C52.2689 14.8333 52.0489 15 51.7022 15H49.8022ZM68.2661 15.2C66.6394 15.2 65.3594 14.7667 64.4261 13.9C63.4928 13.02 63.0128 11.7467 62.9861 10.08V9.46C63.0394 7.87333 63.5328 6.63333 64.4661 5.74C65.3994 4.84667 66.6594 4.4 68.2461 4.4C69.3928 4.4 70.3594 4.63333 71.1461 5.1C71.9461 5.55333 72.5394 6.18667 72.9261 7C73.3261 7.8 73.5261 8.71333 73.5261 9.74V10.24C73.5261 10.3867 73.4728 10.5133 73.3661 10.62C73.2728 10.7133 73.1528 10.76 73.0061 10.76H66.6661V10.88C66.6794 11.48 66.8194 11.9667 67.0861 12.34C67.3528 12.7 67.7328 12.88 68.2261 12.88C68.5461 12.88 68.7994 12.82 68.9861 12.7C69.1861 12.5667 69.3728 12.4 69.5461 12.2C69.6661 12.0667 69.7594 11.9867 69.8261 11.96C69.9061 11.92 70.0261 11.9 70.1861 11.9H72.8061C72.9261 11.9 73.0261 11.94 73.1061 12.02C73.1994 12.0867 73.2461 12.1733 73.2461 12.28C73.2461 12.6267 73.0461 13.0333 72.6461 13.5C72.2594 13.9667 71.6861 14.3667 70.9261 14.7C70.1794 15.0333 69.2928 15.2 68.2661 15.2ZM69.8461 8.72V8.68C69.8461 8.04 69.7061 7.54667 69.4261 7.2C69.1461 6.84 68.7528 6.66 68.2461 6.66C67.7394 6.66 67.3461 6.84 67.0661 7.2C66.7994 7.54667 66.6661 8.04 66.6661 8.68V8.72H69.8461ZM75.8197 15C75.6864 15 75.5664 14.9533 75.4597 14.86C75.3664 14.7533 75.3197 14.6333 75.3197 14.5V5.12C75.3197 4.97333 75.3664 4.85333 75.4597 4.76C75.553 4.65333 75.673 4.6 75.8197 4.6H78.2597C78.4064 4.6 78.5264 4.65333 78.6197 4.76C78.7264 4.85333 78.7797 4.97333 78.7797 5.12V5.88C79.153 5.46667 79.5864 5.15333 80.0797 4.94C80.5864 4.71333 81.1464 4.6 81.7597 4.6H82.6597C82.8064 4.6 82.9264 4.64667 83.0197 4.74C83.113 4.83333 83.1597 4.95333 83.1597 5.1V7.28C83.1597 7.41333 83.113 7.53333 83.0197 7.64C82.9264 7.73333 82.8064 7.78 82.6597 7.78H80.6397C80.1064 7.78 79.693 7.92667 79.3997 8.22C79.1197 8.51333 78.9797 8.92667 78.9797 9.46V14.5C78.9797 14.6467 78.9264 14.7667 78.8197 14.86C78.7264 14.9533 78.6064 15 78.4597 15H75.8197ZM89.3403 15.2C87.7136 15.2 86.4336 14.7667 85.5003 13.9C84.567 13.02 84.087 11.7467 84.0603 10.08V9.46C84.1136 7.87333 84.607 6.63333 85.5403 5.74C86.4736 4.84667 87.7336 4.4 89.3203 4.4C90.467 4.4 91.4336 4.63333 92.2203 5.1C93.0203 5.55333 93.6136 6.18667 94.0003 7C94.4003 7.8 94.6003 8.71333 94.6003 9.74V10.24C94.6003 10.3867 94.547 10.5133 94.4403 10.62C94.347 10.7133 94.227 10.76 94.0803 10.76H87.7403V10.88C87.7536 11.48 87.8936 11.9667 88.1603 12.34C88.427 12.7 88.807 12.88 89.3003 12.88C89.6203 12.88 89.8736 12.82 90.0603 12.7C90.2603 12.5667 90.447 12.4 90.6203 12.2C90.7403 12.0667 90.8336 11.9867 90.9003 11.96C90.9803 11.92 91.1003 11.9 91.2603 11.9H93.8803C94.0003 11.9 94.1003 11.94 94.1803 12.02C94.2736 12.0867 94.3203 12.1733 94.3203 12.28C94.3203 12.6267 94.1203 13.0333 93.7203 13.5C93.3336 13.9667 92.7603 14.3667 92.0003 14.7C91.2536 15.0333 90.367 15.2 89.3403 15.2ZM90.9203 8.72V8.68C90.9203 8.04 90.7803 7.54667 90.5003 7.2C90.2203 6.84 89.827 6.66 89.3203 6.66C88.8136 6.66 88.4203 6.84 88.1403 7.2C87.8736 7.54667 87.7403 8.04 87.7403 8.68V8.72H90.9203ZM100.294 15.2C99.0006 15.2 97.9806 14.7933 97.2339 13.98C96.5006 13.1667 96.1072 12.0067 96.0539 10.5L96.0339 9.8L96.0539 9.08C96.1072 7.62667 96.5072 6.48667 97.2539 5.66C98.0006 4.82 99.0139 4.4 100.294 4.4C101.494 4.4 102.461 4.78667 103.194 5.56V1.3C103.194 1.15333 103.241 1.03333 103.334 0.94C103.441 0.846666 103.561 0.799999 103.694 0.799999H106.274C106.421 0.799999 106.541 0.846666 106.634 0.94C106.741 1.03333 106.794 1.15333 106.794 1.3V14.5C106.794 14.6467 106.741 14.7667 106.634 14.86C106.541 14.9533 106.421 15 106.274 15H103.894C103.761 15 103.641 14.9533 103.534 14.86C103.441 14.7533 103.394 14.6333 103.394 14.5V13.88C102.674 14.76 101.641 15.2 100.294 15.2ZM101.454 12.42C102.027 12.42 102.454 12.24 102.734 11.88C103.014 11.5067 103.167 11.04 103.194 10.48C103.221 10.1067 103.234 9.85333 103.234 9.72C103.234 9.57333 103.221 9.32667 103.194 8.98C103.167 8.46 103.007 8.03333 102.714 7.7C102.434 7.35333 102.014 7.18 101.454 7.18C100.854 7.18 100.421 7.36 100.154 7.72C99.9006 8.06667 99.7539 8.55333 99.7139 9.18L99.6939 9.8L99.7139 10.42C99.7539 11.0467 99.9006 11.54 100.154 11.9C100.421 12.2467 100.854 12.42 101.454 12.42ZM119.769 15.2C118.422 15.2 117.389 14.76 116.669 13.88V14.5C116.669 14.6333 116.622 14.7533 116.529 14.86C116.436 14.9533 116.316 15 116.169 15H113.789C113.642 15 113.516 14.9533 113.409 14.86C113.316 14.7667 113.269 14.6467 113.269 14.5V1.3C113.269 1.15333 113.316 1.03333 113.409 0.94C113.516 0.846666 113.642 0.799999 113.789 0.799999H116.369C116.516 0.799999 116.636 0.846666 116.729 0.94C116.822 1.03333 116.869 1.15333 116.869 1.3V5.56C117.602 4.78667 118.569 4.4 119.769 4.4C121.049 4.4 122.062 4.82 122.809 5.66C123.556 6.48667 123.956 7.62667 124.009 9.08C124.022 9.25333 124.029 9.49333 124.029 9.8C124.029 10.0933 124.022 10.3267 124.009 10.5C123.956 12.0067 123.556 13.1667 122.809 13.98C122.076 14.7933 121.062 15.2 119.769 15.2ZM118.609 12.42C119.209 12.42 119.636 12.2467 119.889 11.9C120.156 11.54 120.309 11.0467 120.349 10.42C120.362 10.2867 120.369 10.08 120.369 9.8C120.369 9.52 120.362 9.31333 120.349 9.18C120.309 8.55333 120.156 8.06667 119.889 7.72C119.636 7.36 119.209 7.18 118.609 7.18C118.049 7.18 117.622 7.35333 117.329 7.7C117.049 8.03333 116.896 8.46 116.869 8.98C116.856 9.15333 116.849 9.4 116.849 9.72C116.849 10.04 116.856 10.2933 116.869 10.48C116.896 11.04 117.049 11.5067 117.329 11.88C117.609 12.24 118.036 12.42 118.609 12.42ZM127.455 18.8C127.335 18.8 127.235 18.76 127.155 18.68C127.075 18.6 127.035 18.5 127.035 18.38C127.035 18.2867 127.049 18.2 127.075 18.12L128.655 14.36L124.815 5.28C124.775 5.17333 124.755 5.1 124.755 5.06C124.782 4.92667 124.835 4.82 124.915 4.74C125.009 4.64667 125.115 4.6 125.235 4.6H127.615C127.895 4.6 128.089 4.74 128.195 5.02L130.415 10.7L132.695 5.02C132.829 4.74 133.029 4.6 133.295 4.6H135.655C135.775 4.6 135.875 4.64667 135.955 4.74C136.049 4.82 136.095 4.91333 136.095 5.02C136.095 5.11333 136.082 5.2 136.055 5.28L130.395 18.38C130.262 18.66 130.055 18.8 129.775 18.8H127.455ZM141.919 15C141.785 15 141.665 14.9533 141.559 14.86C141.465 14.7533 141.419 14.6333 141.419 14.5V1.52C141.419 1.37333 141.465 1.25333 141.559 1.16C141.652 1.05333 141.772 0.999999 141.919 0.999999H147.579C149.312 0.999999 150.672 1.39333 151.659 2.18C152.645 2.96667 153.139 4.12 153.139 5.64C153.139 7.16 152.645 8.3 151.659 9.06C150.672 9.80667 149.312 10.18 147.579 10.18H145.299V14.5C145.299 14.6333 145.252 14.7533 145.159 14.86C145.065 14.9533 144.945 15 144.799 15H141.919ZM147.479 7.32C148.025 7.32 148.452 7.18 148.759 6.9C149.079 6.60667 149.239 6.18 149.239 5.62C149.239 5.1 149.092 4.68 148.799 4.36C148.519 4.04 148.079 3.88 147.479 3.88H145.239V7.32H147.479ZM160.793 15.2C158.899 15.2 157.406 14.74 156.313 13.82C155.219 12.9 154.639 11.5467 154.573 9.76C154.559 9.38667 154.553 8.81333 154.553 8.04C154.553 7.26667 154.559 6.68667 154.573 6.3C154.626 4.54 155.206 3.18667 156.313 2.24C157.433 1.28 158.926 0.799999 160.793 0.799999C162.646 0.799999 164.126 1.28 165.233 2.24C166.353 3.18667 166.939 4.54 166.993 6.3C167.019 7.07333 167.033 7.65333 167.033 8.04C167.033 8.44 167.019 9.01333 166.993 9.76C166.926 11.5467 166.346 12.9 165.253 13.82C164.173 14.74 162.686 15.2 160.793 15.2ZM160.793 12.2C161.486 12.2 162.039 11.9933 162.453 11.58C162.866 11.1533 163.086 10.5067 163.113 9.64C163.139 8.86667 163.153 8.31333 163.153 7.98C163.153 7.64667 163.139 7.10667 163.113 6.36C163.086 5.49333 162.866 4.85333 162.453 4.44C162.039 4.01333 161.486 3.8 160.793 3.8C160.086 3.8 159.526 4.01333 159.113 4.44C158.699 4.85333 158.479 5.49333 158.453 6.36C158.439 6.73333 158.433 7.27333 158.433 7.98C158.433 8.7 158.439 9.25333 158.453 9.64C158.479 10.5067 158.699 11.1533 159.113 11.58C159.526 11.9933 160.086 12.2 160.793 12.2ZM171.373 15C171.147 15 170.96 14.94 170.813 14.82C170.68 14.6867 170.6 14.5267 170.573 14.34L168.433 1.54C168.42 1.51333 168.413 1.47333 168.413 1.42C168.413 1.31333 168.453 1.22 168.533 1.14C168.627 1.04667 168.727 0.999999 168.833 0.999999H171.453C171.84 0.999999 172.053 1.15333 172.093 1.46L173.313 9.02L174.693 4.64C174.8 4.28 175.02 4.1 175.353 4.1H176.853C177.187 4.1 177.407 4.28 177.513 4.64L178.893 9L180.133 1.46C180.16 1.3 180.22 1.18667 180.313 1.12C180.407 1.04 180.553 0.999999 180.753 0.999999H183.373C183.493 0.999999 183.593 1.04667 183.673 1.14C183.753 1.22 183.793 1.31333 183.793 1.42V1.54L181.653 14.34C181.627 14.5267 181.54 14.6867 181.393 14.82C181.247 14.94 181.067 15 180.853 15H178.833C178.62 15 178.453 14.9467 178.333 14.84C178.213 14.7333 178.133 14.6133 178.093 14.48L176.113 8.94L174.133 14.48C174.08 14.6133 173.993 14.7333 173.873 14.84C173.753 14.9467 173.587 15 173.373 15H171.373ZM186.294 15C186.16 15 186.04 14.9533 185.934 14.86C185.84 14.7533 185.794 14.6333 185.794 14.5V1.52C185.794 1.37333 185.84 1.25333 185.934 1.16C186.027 1.05333 186.147 0.999999 186.294 0.999999H195.734C195.88 0.999999 196 1.05333 196.094 1.16C196.2 1.25333 196.254 1.37333 196.254 1.52V3.5C196.254 3.64667 196.2 3.76667 196.094 3.86C196 3.95333 195.88 4 195.734 4H189.414V6.54H195.294C195.44 6.54 195.56 6.59333 195.654 6.7C195.76 6.79333 195.814 6.91333 195.814 7.06V8.88C195.814 9.02667 195.76 9.15333 195.654 9.26C195.56 9.35333 195.44 9.4 195.294 9.4H189.414V12H195.894C196.04 12 196.16 12.0533 196.254 12.16C196.36 12.2533 196.414 12.3733 196.414 12.52V14.5C196.414 14.6467 196.36 14.7667 196.254 14.86C196.16 14.9533 196.04 15 195.894 15H186.294ZM199.126 15C198.992 15 198.872 14.9533 198.766 14.86C198.672 14.7533 198.626 14.6333 198.626 14.5V1.52C198.626 1.37333 198.672 1.25333 198.766 1.16C198.859 1.05333 198.979 0.999999 199.126 0.999999H204.626C206.386 0.999999 207.759 1.4 208.746 2.2C209.746 3 210.246 4.12667 210.246 5.58C210.246 6.51333 210.026 7.30667 209.586 7.96C209.159 8.61333 208.566 9.12 207.806 9.48L210.506 14.36C210.546 14.44 210.566 14.5133 210.566 14.58C210.566 14.6867 210.526 14.7867 210.446 14.88C210.366 14.96 210.266 15 210.146 15H207.326C206.939 15 206.666 14.82 206.506 14.46L204.306 10.12H202.386V14.5C202.386 14.6467 202.332 14.7667 202.226 14.86C202.132 14.9533 202.012 15 201.866 15H199.126ZM204.606 7.18C205.179 7.18 205.612 7.04 205.906 6.76C206.212 6.46667 206.366 6.06667 206.366 5.56C206.366 5.05333 206.212 4.64667 205.906 4.34C205.612 4.03333 205.179 3.88 204.606 3.88H202.386V7.18H204.606ZM218.273 15.2C216.367 15.2 214.867 14.74 213.773 13.82C212.693 12.9 212.12 11.5533 212.053 9.78C212.04 9.42 212.033 8.83333 212.033 8.02C212.033 7.19333 212.04 6.59333 212.053 6.22C212.12 4.48667 212.7 3.15333 213.793 2.22C214.9 1.27333 216.393 0.799999 218.273 0.799999C219.46 0.799999 220.52 0.993332 221.453 1.38C222.4 1.76667 223.147 2.32667 223.693 3.06C224.24 3.79333 224.527 4.66 224.553 5.66C224.553 5.78 224.507 5.88 224.413 5.96C224.333 6.04 224.233 6.08 224.113 6.08H221.273C221.087 6.08 220.947 6.04667 220.853 5.98C220.773 5.9 220.7 5.76 220.633 5.56C220.447 4.90667 220.16 4.45333 219.773 4.2C219.4 3.93333 218.9 3.8 218.273 3.8C216.767 3.8 215.987 4.64 215.933 6.32C215.92 6.68 215.913 7.23333 215.913 7.98C215.913 8.72667 215.92 9.29333 215.933 9.68C215.987 11.36 216.767 12.2 218.273 12.2C218.887 12.2 219.387 12.0667 219.773 11.8C220.173 11.5333 220.46 11.08 220.633 10.44C220.687 10.24 220.76 10.1067 220.853 10.04C220.947 9.96 221.087 9.92 221.273 9.92H224.113C224.233 9.92 224.333 9.96 224.413 10.04C224.507 10.12 224.553 10.22 224.553 10.34C224.527 11.34 224.24 12.2067 223.693 12.94C223.147 13.6733 222.4 14.2333 221.453 14.62C220.52 15.0067 219.46 15.2 218.273 15.2ZM232.394 15.2C230.501 15.2 229.008 14.74 227.914 13.82C226.821 12.9 226.241 11.5467 226.174 9.76C226.161 9.38667 226.154 8.81333 226.154 8.04C226.154 7.26667 226.161 6.68667 226.174 6.3C226.228 4.54 226.808 3.18667 227.914 2.24C229.034 1.28 230.528 0.799999 232.394 0.799999C234.248 0.799999 235.728 1.28 236.834 2.24C237.954 3.18667 238.541 4.54 238.594 6.3C238.621 7.07333 238.634 7.65333 238.634 8.04C238.634 8.44 238.621 9.01333 238.594 9.76C238.528 11.5467 237.948 12.9 236.854 13.82C235.774 14.74 234.288 15.2 232.394 15.2ZM232.394 12.2C233.088 12.2 233.641 11.9933 234.054 11.58C234.468 11.1533 234.688 10.5067 234.714 9.64C234.741 8.86667 234.754 8.31333 234.754 7.98C234.754 7.64667 234.741 7.10667 234.714 6.36C234.688 5.49333 234.468 4.85333 234.054 4.44C233.641 4.01333 233.088 3.8 232.394 3.8C231.688 3.8 231.128 4.01333 230.714 4.44C230.301 4.85333 230.081 5.49333 230.054 6.36C230.041 6.73333 230.034 7.27333 230.034 7.98C230.034 8.7 230.041 9.25333 230.054 9.64C230.081 10.5067 230.301 11.1533 230.714 11.58C231.128 11.9933 231.688 12.2 232.394 12.2ZM241.391 15C241.258 15 241.138 14.9533 241.031 14.86C240.938 14.7533 240.891 14.6333 240.891 14.5V1.52C240.891 1.37333 240.938 1.25333 241.031 1.16C241.125 1.05333 241.245 0.999999 241.391 0.999999H246.651C248.625 0.999999 250.158 1.47333 251.251 2.42C252.345 3.35333 252.918 4.7 252.971 6.46C252.985 6.84667 252.991 7.36 252.991 8C252.991 8.64 252.985 9.14667 252.971 9.52C252.838 13.1733 250.765 15 246.751 15H241.391ZM246.651 12C247.491 12 248.111 11.8 248.511 11.4C248.911 11 249.125 10.36 249.151 9.48C249.178 9.09333 249.191 8.59333 249.191 7.98C249.191 7.36667 249.178 6.87333 249.151 6.5C249.125 5.64667 248.891 5.02 248.451 4.62C248.025 4.20667 247.391 4 246.551 4H244.651V12H246.651ZM255.766 15C255.633 15 255.513 14.9533 255.406 14.86C255.313 14.7533 255.266 14.6333 255.266 14.5V1.52C255.266 1.37333 255.313 1.25333 255.406 1.16C255.5 1.05333 255.62 0.999999 255.766 0.999999H265.206C265.353 0.999999 265.473 1.05333 265.566 1.16C265.673 1.25333 265.726 1.37333 265.726 1.52V3.5C265.726 3.64667 265.673 3.76667 265.566 3.86C265.473 3.95333 265.353 4 265.206 4H258.886V6.54H264.766C264.913 6.54 265.033 6.59333 265.126 6.7C265.233 6.79333 265.286 6.91333 265.286 7.06V8.88C265.286 9.02667 265.233 9.15333 265.126 9.26C265.033 9.35333 264.913 9.4 264.766 9.4H258.886V12H265.366C265.513 12 265.633 12.0533 265.726 12.16C265.833 12.2533 265.886 12.3733 265.886 12.52V14.5C265.886 14.6467 265.833 14.7667 265.726 14.86C265.633 14.9533 265.513 15 265.366 15H255.766Z" fill="#232F3C"/>
</svg>
