<svg width="139" height="31" viewBox="0 0 139 31" fill="none" xmlns="http://www.w3.org/2000/svg">
<path d="M3.95348 10.538C3.86014 10.538 3.77614 10.5053 3.70148 10.44C3.63614 10.3653 3.60348 10.2813 3.60348 10.188V7.654H1.13948C1.04614 7.654 0.962143 7.62133 0.887477 7.556C0.822143 7.48133 0.789477 7.39733 0.789477 7.304V6.226C0.789477 6.12333 0.822143 6.03933 0.887477 5.974C0.95281 5.89933 1.03681 5.862 1.13948 5.862H3.60348V3.412C3.60348 3.30933 3.63614 3.22533 3.70148 3.16C3.77614 3.09467 3.86014 3.062 3.95348 3.062H5.15748C5.26014 3.062 5.34414 3.09467 5.40948 3.16C5.48414 3.22533 5.52148 3.30933 5.52148 3.412V5.862H7.95748C8.06014 5.862 8.14414 5.89933 8.20948 5.974C8.28414 6.03933 8.32148 6.12333 8.32148 6.226V7.304C8.32148 7.40667 8.28414 7.49067 8.20948 7.556C8.14414 7.62133 8.06014 7.654 7.95748 7.654H5.52148V10.188C5.52148 10.2907 5.48414 10.3747 5.40948 10.44C5.34414 10.5053 5.26014 10.538 5.15748 10.538H3.95348ZM13.2997 11.14C12.385 11.14 11.615 11 10.9897 10.72C10.3737 10.4307 9.91635 10.076 9.61768 9.656C9.32835 9.236 9.17435 8.816 9.15568 8.396C9.15568 8.312 9.18368 8.242 9.23968 8.186C9.30501 8.13 9.37968 8.102 9.46368 8.102H11.3957C11.5077 8.102 11.5963 8.12533 11.6617 8.172C11.727 8.20933 11.7877 8.27467 11.8437 8.368C12.021 8.82533 12.511 9.054 13.3137 9.054C13.771 9.054 14.1257 8.94667 14.3777 8.732C14.6297 8.51733 14.7557 8.228 14.7557 7.864C14.7557 7.164 14.289 6.814 13.3557 6.814H11.7877C11.685 6.814 11.5963 6.78133 11.5217 6.716C11.4563 6.64133 11.4237 6.55267 11.4237 6.45V5.624C11.4237 5.40933 11.503 5.25067 11.6617 5.148L13.9157 3.3H10.0517C9.95835 3.3 9.87435 3.26733 9.79968 3.202C9.73435 3.12733 9.70168 3.04333 9.70168 2.95V1.564C9.70168 1.46133 9.73435 1.37733 9.79968 1.312C9.86501 1.23733 9.94901 1.2 10.0517 1.2H16.5757C16.6783 1.2 16.7623 1.23733 16.8277 1.312C16.893 1.37733 16.9257 1.46133 16.9257 1.564V2.81C16.9257 3.006 16.851 3.16 16.7017 3.272L14.6297 5.162L14.7277 5.19C15.5677 5.31133 16.235 5.60067 16.7297 6.058C17.2243 6.51533 17.4717 7.17333 17.4717 8.032C17.4717 8.65733 17.2897 9.208 16.9257 9.684C16.571 10.1507 16.0763 10.51 15.4417 10.762C14.8163 11.014 14.1023 11.14 13.2997 11.14ZM22.7922 11.14C21.8869 11.14 21.1216 11.0047 20.4962 10.734C19.8709 10.454 19.4042 10.0807 19.0962 9.614C18.7976 9.14733 18.6482 8.62467 18.6482 8.046C18.6482 7.56067 18.7696 7.122 19.0122 6.73C19.2642 6.32867 19.5909 6.02067 19.9922 5.806C19.3296 5.37667 18.9982 4.73267 18.9982 3.874C18.9982 3.04333 19.3156 2.36667 19.9502 1.844C20.5942 1.32133 21.5416 1.06 22.7922 1.06C24.0336 1.06 24.9669 1.32133 25.5922 1.844C26.2269 2.35733 26.5442 3.02933 26.5442 3.86C26.5442 4.70933 26.2269 5.358 25.5922 5.806C26.0029 6.002 26.3296 6.30067 26.5722 6.702C26.8242 7.10333 26.9502 7.556 26.9502 8.06C26.9502 8.63867 26.7962 9.16133 26.4882 9.628C26.1802 10.0853 25.7136 10.454 25.0882 10.734C24.4629 11.0047 23.6976 11.14 22.7922 11.14ZM22.7922 5.078C23.1842 5.06867 23.5062 4.966 23.7582 4.77C24.0102 4.56467 24.1362 4.308 24.1362 4C24.1362 3.68267 24.0102 3.426 23.7582 3.23C23.5062 3.02467 23.1842 2.922 22.7922 2.922C22.3909 2.922 22.0642 3.02467 21.8122 3.23C21.5696 3.426 21.4482 3.68267 21.4482 4C21.4482 4.31733 21.5696 4.57867 21.8122 4.784C22.0642 4.98 22.3909 5.078 22.7922 5.078ZM22.7922 9.292C23.2309 9.292 23.5902 9.18 23.8702 8.956C24.1596 8.732 24.3042 8.43333 24.3042 8.06C24.3042 7.68667 24.1596 7.388 23.8702 7.164C23.5902 6.94 23.2309 6.828 22.7922 6.828C22.3536 6.828 21.9896 6.94 21.7002 7.164C21.4109 7.388 21.2662 7.68667 21.2662 8.06C21.2662 8.43333 21.4109 8.732 21.7002 8.956C21.9896 9.18 22.3536 9.292 22.7922 9.292ZM35.261 13.226C32.4703 13.226 31.075 11.042 31.075 6.674C31.075 2.31533 32.4703 0.136 35.261 0.136C35.3636 0.136 35.4476 0.168666 35.513 0.233999C35.5783 0.299333 35.611 0.383333 35.611 0.485999V1.746C35.611 1.83933 35.5783 1.91867 35.513 1.984C35.4476 2.04933 35.3683 2.08667 35.275 2.096C34.547 2.14267 34.0383 2.544 33.749 3.3C33.4596 4.04667 33.315 5.17133 33.315 6.674C33.315 8.17667 33.4596 9.306 33.749 10.062C34.0383 10.818 34.547 11.2193 35.275 11.266C35.3683 11.2753 35.4476 11.3127 35.513 11.378C35.5783 11.4433 35.611 11.5227 35.611 11.616V12.876C35.611 12.9787 35.5783 13.0627 35.513 13.128C35.4476 13.1933 35.3636 13.226 35.261 13.226ZM40.3746 11.14C39.0866 11.1307 38.1066 10.79 37.4346 10.118C36.7626 9.446 36.3939 8.55933 36.3286 7.458C36.3099 6.954 36.3006 6.50133 36.3006 6.1C36.3006 5.68933 36.3099 5.22267 36.3286 4.7C36.3659 4 36.5386 3.37933 36.8466 2.838C37.1639 2.28733 37.6166 1.85333 38.2046 1.536C38.8019 1.21867 39.5253 1.06 40.3746 1.06C41.2239 1.06 41.9473 1.21867 42.5446 1.536C43.1419 1.85333 43.5946 2.28733 43.9026 2.838C44.2199 3.37933 44.3973 4 44.4346 4.7C44.4533 4.96133 44.4626 5.428 44.4626 6.1C44.4626 6.75333 44.4533 7.206 44.4346 7.458C44.3693 8.55933 44.0006 9.446 43.3286 10.118C42.6566 10.79 41.6719 11.1307 40.3746 11.14ZM40.3746 9.026C40.8133 9.026 41.1399 8.886 41.3546 8.606C41.5693 8.31667 41.6859 7.91067 41.7046 7.388C41.7233 7.11733 41.7326 6.67867 41.7326 6.072C41.7326 5.46533 41.7233 5.036 41.7046 4.784C41.6859 4.28 41.5693 3.88333 41.3546 3.594C41.1399 3.29533 40.8133 3.146 40.3746 3.146C39.5346 3.146 39.0913 3.692 39.0446 4.784C39.0353 5.036 39.0306 5.46533 39.0306 6.072C39.0306 6.67867 39.0353 7.11733 39.0446 7.388C39.0913 8.48 39.5346 9.026 40.3746 9.026ZM47.1309 11C47.0469 11 46.9769 10.972 46.9209 10.916C46.8649 10.8507 46.8369 10.776 46.8369 10.692C46.8369 10.6453 46.8462 10.6033 46.8649 10.566L50.0849 3.398H45.9269C45.8242 3.398 45.7356 3.36533 45.6609 3.3C45.5956 3.22533 45.5629 3.13667 45.5629 3.034V1.564C45.5629 1.46133 45.5956 1.37733 45.6609 1.312C45.7356 1.23733 45.8242 1.2 45.9269 1.2H52.5489C52.6516 1.2 52.7356 1.23733 52.8009 1.312C52.8756 1.37733 52.9129 1.46133 52.9129 1.564V2.866C52.9129 3.034 52.8896 3.17867 52.8429 3.3C52.7962 3.42133 52.7682 3.49133 52.7589 3.51L49.5389 10.664C49.4362 10.888 49.2682 11 49.0349 11H47.1309ZM57.8563 11.14C56.9417 11.14 56.1717 11 55.5463 10.72C54.9303 10.4307 54.473 10.076 54.1743 9.656C53.885 9.236 53.731 8.816 53.7123 8.396C53.7123 8.312 53.7403 8.242 53.7963 8.186C53.8617 8.13 53.9363 8.102 54.0203 8.102H55.9523C56.0643 8.102 56.153 8.12533 56.2183 8.172C56.2837 8.20933 56.3443 8.27467 56.4003 8.368C56.5777 8.82533 57.0677 9.054 57.8703 9.054C58.3277 9.054 58.6823 8.94667 58.9343 8.732C59.1863 8.51733 59.3123 8.228 59.3123 7.864C59.3123 7.164 58.8457 6.814 57.9123 6.814H56.3443C56.2417 6.814 56.153 6.78133 56.0783 6.716C56.013 6.64133 55.9803 6.55267 55.9803 6.45V5.624C55.9803 5.40933 56.0597 5.25067 56.2183 5.148L58.4723 3.3H54.6083C54.515 3.3 54.431 3.26733 54.3563 3.202C54.291 3.12733 54.2583 3.04333 54.2583 2.95V1.564C54.2583 1.46133 54.291 1.37733 54.3563 1.312C54.4217 1.23733 54.5057 1.2 54.6083 1.2H61.1323C61.235 1.2 61.319 1.23733 61.3843 1.312C61.4497 1.37733 61.4823 1.46133 61.4823 1.564V2.81C61.4823 3.006 61.4077 3.16 61.2583 3.272L59.1863 5.162L59.2843 5.19C60.1243 5.31133 60.7917 5.60067 61.2863 6.058C61.781 6.51533 62.0283 7.17333 62.0283 8.032C62.0283 8.65733 61.8463 9.208 61.4823 9.684C61.1277 10.1507 60.633 10.51 59.9983 10.762C59.373 11.014 58.659 11.14 57.8563 11.14ZM63.2609 13.226C63.1675 13.226 63.0835 13.1933 63.0089 13.128C62.9435 13.0627 62.9109 12.9787 62.9109 12.876V11.616C62.9109 11.5227 62.9435 11.4433 63.0089 11.378C63.0742 11.3127 63.1535 11.2753 63.2469 11.266C63.9842 11.2193 64.4929 10.8227 64.7729 10.076C65.0622 9.32 65.2069 8.186 65.2069 6.674C65.2069 5.17133 65.0622 4.04667 64.7729 3.3C64.4929 2.544 63.9842 2.14267 63.2469 2.096C63.1535 2.08667 63.0742 2.04933 63.0089 1.984C62.9435 1.91867 62.9109 1.83933 62.9109 1.746V0.485999C62.9109 0.383333 62.9435 0.299333 63.0089 0.233999C63.0835 0.168666 63.1675 0.136 63.2609 0.136C66.0609 0.136 67.4609 2.31533 67.4609 6.674C67.4609 11.042 66.0609 13.226 63.2609 13.226ZM74.8341 11C74.7407 11 74.6567 10.9673 74.5821 10.902C74.5167 10.8273 74.4841 10.7433 74.4841 10.65V4.098L72.6081 5.54C72.5334 5.58667 72.4634 5.61 72.3981 5.61C72.2861 5.61 72.1881 5.554 72.1041 5.442L71.2361 4.322C71.1987 4.25667 71.1801 4.18667 71.1801 4.112C71.1801 3.98133 71.2314 3.87867 71.3341 3.804L74.5821 1.298C74.6754 1.23267 74.7827 1.2 74.9041 1.2H76.7521C76.8547 1.2 76.9387 1.23267 77.0041 1.298C77.0787 1.36333 77.1161 1.44733 77.1161 1.55V10.65C77.1161 10.7527 77.0787 10.8367 77.0041 10.902C76.9387 10.9673 76.8547 11 76.7521 11H74.8341ZM78.9347 11C78.8414 11 78.7574 10.9673 78.6827 10.902C78.6174 10.8273 78.5847 10.7433 78.5847 10.65V9.6C78.5847 9.32 78.7014 9.08667 78.9347 8.9L80.2367 7.626C81.1234 6.954 81.7907 6.43133 82.2387 6.058C82.6961 5.68467 83.0414 5.34867 83.2747 5.05C83.5174 4.742 83.6387 4.45267 83.6387 4.182C83.6387 3.49133 83.2934 3.146 82.6027 3.146C82.2387 3.146 81.9587 3.258 81.7627 3.482C81.5667 3.69667 81.4361 3.96733 81.3707 4.294C81.3147 4.50867 81.1561 4.616 80.8947 4.616H79.0467C78.9627 4.616 78.8881 4.588 78.8227 4.532C78.7667 4.46667 78.7387 4.39667 78.7387 4.322C78.7574 3.706 78.9254 3.15067 79.2427 2.656C79.5694 2.152 80.0221 1.75533 80.6007 1.466C81.1794 1.16733 81.8467 1.018 82.6027 1.018C83.3867 1.018 84.0634 1.144 84.6327 1.396C85.2021 1.648 85.6314 2.00267 85.9207 2.46C86.2194 2.91733 86.3687 3.44933 86.3687 4.056C86.3687 4.728 86.1587 5.33467 85.7387 5.876C85.3281 6.41733 84.6981 7.00533 83.8487 7.64L82.6867 8.802H86.2287C86.3314 8.802 86.4154 8.83467 86.4807 8.9C86.5461 8.96533 86.5787 9.04933 86.5787 9.152V10.65C86.5787 10.7433 86.5461 10.8273 86.4807 10.902C86.4154 10.9673 86.3314 11 86.2287 11H78.9347ZM91.8602 11.14C91.0296 11.14 90.2969 10.9953 89.6622 10.706C89.0276 10.4073 88.5329 9.992 88.1782 9.46C87.8236 8.928 87.6462 8.31667 87.6462 7.626C87.6462 6.82333 88.0429 5.86667 88.8362 4.756L91.2862 1.48C91.4169 1.29333 91.5849 1.2 91.7902 1.2H93.7502C93.8342 1.2 93.9042 1.23267 93.9602 1.298C94.0256 1.354 94.0582 1.424 94.0582 1.508C94.0582 1.55467 94.0349 1.61533 93.9882 1.69L92.1122 4.238C92.2242 4.21 92.3549 4.196 92.5042 4.196C93.0736 4.224 93.6242 4.38267 94.1562 4.672C94.6976 4.96133 95.1362 5.358 95.4722 5.862C95.8176 6.35667 95.9902 6.926 95.9902 7.57C95.9902 8.22333 95.8176 8.82533 95.4722 9.376C95.1269 9.91733 94.6416 10.3467 94.0162 10.664C93.3909 10.9813 92.6722 11.14 91.8602 11.14ZM91.8322 9.04C92.2429 9.04 92.5929 8.914 92.8822 8.662C93.1716 8.40067 93.3162 8.05067 93.3162 7.612C93.3162 7.164 93.1716 6.814 92.8822 6.562C92.6022 6.31 92.2522 6.184 91.8322 6.184C91.4122 6.184 91.0576 6.31 90.7682 6.562C90.4882 6.814 90.3482 7.164 90.3482 7.612C90.3482 8.06 90.4882 8.41 90.7682 8.662C91.0576 8.914 91.4122 9.04 91.8322 9.04ZM104.086 11.14C102.798 11.1307 101.818 10.79 101.146 10.118C100.474 9.446 100.105 8.55933 100.04 7.458C100.021 6.954 100.012 6.50133 100.012 6.1C100.012 5.68933 100.021 5.22267 100.04 4.7C100.077 4 100.25 3.37933 100.558 2.838C100.875 2.28733 101.328 1.85333 101.916 1.536C102.513 1.21867 103.236 1.06 104.086 1.06C104.935 1.06 105.658 1.21867 106.256 1.536C106.853 1.85333 107.306 2.28733 107.614 2.838C107.931 3.37933 108.108 4 108.146 4.7C108.164 4.96133 108.174 5.428 108.174 6.1C108.174 6.75333 108.164 7.206 108.146 7.458C108.08 8.55933 107.712 9.446 107.04 10.118C106.368 10.79 105.383 11.1307 104.086 11.14ZM104.086 9.026C104.524 9.026 104.851 8.886 105.066 8.606C105.28 8.31667 105.397 7.91067 105.416 7.388C105.434 7.11733 105.444 6.67867 105.444 6.072C105.444 5.46533 105.434 5.036 105.416 4.784C105.397 4.28 105.28 3.88333 105.066 3.594C104.851 3.29533 104.524 3.146 104.086 3.146C103.246 3.146 102.802 3.692 102.756 4.784C102.746 5.036 102.742 5.46533 102.742 6.072C102.742 6.67867 102.746 7.11733 102.756 7.388C102.802 8.48 103.246 9.026 104.086 9.026ZM113.656 11.14C112.368 11.1307 111.388 10.79 110.716 10.118C110.044 9.446 109.675 8.55933 109.61 7.458C109.591 6.954 109.582 6.50133 109.582 6.1C109.582 5.68933 109.591 5.22267 109.61 4.7C109.647 4 109.82 3.37933 110.128 2.838C110.445 2.28733 110.898 1.85333 111.486 1.536C112.083 1.21867 112.807 1.06 113.656 1.06C114.505 1.06 115.229 1.21867 115.826 1.536C116.423 1.85333 116.876 2.28733 117.184 2.838C117.501 3.37933 117.679 4 117.716 4.7C117.735 4.96133 117.744 5.428 117.744 6.1C117.744 6.75333 117.735 7.206 117.716 7.458C117.651 8.55933 117.282 9.446 116.61 10.118C115.938 10.79 114.953 11.1307 113.656 11.14ZM113.656 9.026C114.095 9.026 114.421 8.886 114.636 8.606C114.851 8.31667 114.967 7.91067 114.986 7.388C115.005 7.11733 115.014 6.67867 115.014 6.072C115.014 5.46533 115.005 5.036 114.986 4.784C114.967 4.28 114.851 3.88333 114.636 3.594C114.421 3.29533 114.095 3.146 113.656 3.146C112.816 3.146 112.373 3.692 112.326 4.784C112.317 5.036 112.312 5.46533 112.312 6.072C112.312 6.67867 112.317 7.11733 112.326 7.388C112.373 8.48 112.816 9.026 113.656 9.026ZM123.352 11C123.268 11 123.198 10.972 123.142 10.916C123.086 10.8507 123.058 10.776 123.058 10.692C123.058 10.6453 123.067 10.6033 123.086 10.566L126.306 3.398H122.148C122.045 3.398 121.956 3.36533 121.882 3.3C121.816 3.22533 121.784 3.13667 121.784 3.034V1.564C121.784 1.46133 121.816 1.37733 121.882 1.312C121.956 1.23733 122.045 1.2 122.148 1.2H128.77C128.872 1.2 128.956 1.23733 129.022 1.312C129.096 1.37733 129.134 1.46133 129.134 1.564V2.866C129.134 3.034 129.11 3.17867 129.064 3.3C129.017 3.42133 128.989 3.49133 128.98 3.51L125.76 10.664C125.657 10.888 125.489 11 125.256 11H123.352ZM130.423 11C130.33 11 130.246 10.9673 130.171 10.902C130.106 10.8273 130.073 10.7433 130.073 10.65V9.6C130.073 9.32 130.19 9.08667 130.423 8.9L131.725 7.626C132.612 6.954 133.279 6.43133 133.727 6.058C134.184 5.68467 134.53 5.34867 134.763 5.05C135.006 4.742 135.127 4.45267 135.127 4.182C135.127 3.49133 134.782 3.146 134.091 3.146C133.727 3.146 133.447 3.258 133.251 3.482C133.055 3.69667 132.924 3.96733 132.859 4.294C132.803 4.50867 132.644 4.616 132.383 4.616H130.535C130.451 4.616 130.376 4.588 130.311 4.532C130.255 4.46667 130.227 4.39667 130.227 4.322C130.246 3.706 130.414 3.15067 130.731 2.656C131.058 2.152 131.51 1.75533 132.089 1.466C132.668 1.16733 133.335 1.018 134.091 1.018C134.875 1.018 135.552 1.144 136.121 1.396C136.69 1.648 137.12 2.00267 137.409 2.46C137.708 2.91733 137.857 3.44933 137.857 4.056C137.857 4.728 137.647 5.33467 137.227 5.876C136.816 6.41733 136.186 7.00533 135.337 7.64L134.175 8.802H137.717C137.82 8.802 137.904 8.83467 137.969 8.9C138.034 8.96533 138.067 9.04933 138.067 9.152V10.65C138.067 10.7433 138.034 10.8273 137.969 10.902C137.904 10.9673 137.82 11 137.717 11H130.423ZM4.57555 27.538C4.48221 27.538 4.39821 27.5053 4.32355 27.44C4.25821 27.3653 4.22555 27.2813 4.22555 27.188V24.654H1.76155C1.66821 24.654 1.58421 24.6213 1.50955 24.556C1.44421 24.4813 1.41155 24.3973 1.41155 24.304V23.226C1.41155 23.1233 1.44421 23.0393 1.50955 22.974C1.57488 22.8993 1.65888 22.862 1.76155 22.862H4.22555V20.412C4.22555 20.3093 4.25821 20.2253 4.32355 20.16C4.39821 20.0947 4.48221 20.062 4.57555 20.062H5.77955C5.88221 20.062 5.96621 20.0947 6.03155 20.16C6.10621 20.2253 6.14355 20.3093 6.14355 20.412V22.862H8.57955C8.68221 22.862 8.76621 22.8993 8.83155 22.974C8.90621 23.0393 8.94355 23.1233 8.94355 23.226V24.304C8.94355 24.4067 8.90621 24.4907 8.83155 24.556C8.76621 24.6213 8.68221 24.654 8.57955 24.654H6.14355V27.188C6.14355 27.2907 6.10621 27.3747 6.03155 27.44C5.96621 27.5053 5.88221 27.538 5.77955 27.538H4.57555ZM13.9218 28.14C13.0071 28.14 12.2371 28 11.6118 27.72C10.9958 27.4307 10.5384 27.076 10.2398 26.656C9.95042 26.236 9.79642 25.816 9.77775 25.396C9.77775 25.312 9.80575 25.242 9.86175 25.186C9.92708 25.13 10.0018 25.102 10.0858 25.102H12.0178C12.1298 25.102 12.2184 25.1253 12.2838 25.172C12.3491 25.2093 12.4098 25.2747 12.4658 25.368C12.6431 25.8253 13.1331 26.054 13.9358 26.054C14.3931 26.054 14.7478 25.9467 14.9998 25.732C15.2518 25.5173 15.3778 25.228 15.3778 24.864C15.3778 24.164 14.9111 23.814 13.9778 23.814H12.4098C12.3071 23.814 12.2184 23.7813 12.1438 23.716C12.0784 23.6413 12.0458 23.5527 12.0458 23.45V22.624C12.0458 22.4093 12.1251 22.2507 12.2838 22.148L14.5378 20.3H10.6738C10.5804 20.3 10.4964 20.2673 10.4218 20.202C10.3564 20.1273 10.3238 20.0433 10.3238 19.95V18.564C10.3238 18.4613 10.3564 18.3773 10.4218 18.312C10.4871 18.2373 10.5711 18.2 10.6738 18.2H17.1978C17.3004 18.2 17.3844 18.2373 17.4498 18.312C17.5151 18.3773 17.5478 18.4613 17.5478 18.564V19.81C17.5478 20.006 17.4731 20.16 17.3238 20.272L15.2518 22.162L15.3498 22.19C16.1898 22.3113 16.8571 22.6007 17.3518 23.058C17.8464 23.5153 18.0938 24.1733 18.0938 25.032C18.0938 25.6573 17.9118 26.208 17.5478 26.684C17.1931 27.1507 16.6984 27.51 16.0638 27.762C15.4384 28.014 14.7244 28.14 13.9218 28.14ZM23.4143 28.14C22.509 28.14 21.7436 28.0047 21.1183 27.734C20.493 27.454 20.0263 27.0807 19.7183 26.614C19.4196 26.1473 19.2703 25.6247 19.2703 25.046C19.2703 24.5607 19.3916 24.122 19.6343 23.73C19.8863 23.3287 20.213 23.0207 20.6143 22.806C19.9516 22.3767 19.6203 21.7327 19.6203 20.874C19.6203 20.0433 19.9376 19.3667 20.5723 18.844C21.2163 18.3213 22.1636 18.06 23.4143 18.06C24.6556 18.06 25.589 18.3213 26.2143 18.844C26.849 19.3573 27.1663 20.0293 27.1663 20.86C27.1663 21.7093 26.849 22.358 26.2143 22.806C26.625 23.002 26.9516 23.3007 27.1943 23.702C27.4463 24.1033 27.5723 24.556 27.5723 25.06C27.5723 25.6387 27.4183 26.1613 27.1103 26.628C26.8023 27.0853 26.3356 27.454 25.7103 27.734C25.085 28.0047 24.3196 28.14 23.4143 28.14ZM23.4143 22.078C23.8063 22.0687 24.1283 21.966 24.3803 21.77C24.6323 21.5647 24.7583 21.308 24.7583 21C24.7583 20.6827 24.6323 20.426 24.3803 20.23C24.1283 20.0247 23.8063 19.922 23.4143 19.922C23.013 19.922 22.6863 20.0247 22.4343 20.23C22.1916 20.426 22.0703 20.6827 22.0703 21C22.0703 21.3173 22.1916 21.5787 22.4343 21.784C22.6863 21.98 23.013 22.078 23.4143 22.078ZM23.4143 26.292C23.853 26.292 24.2123 26.18 24.4923 25.956C24.7816 25.732 24.9263 25.4333 24.9263 25.06C24.9263 24.6867 24.7816 24.388 24.4923 24.164C24.2123 23.94 23.853 23.828 23.4143 23.828C22.9756 23.828 22.6116 23.94 22.3223 24.164C22.033 24.388 21.8883 24.6867 21.8883 25.06C21.8883 25.4333 22.033 25.732 22.3223 25.956C22.6116 26.18 22.9756 26.292 23.4143 26.292ZM35.883 30.226C33.0924 30.226 31.697 28.042 31.697 23.674C31.697 19.3153 33.0924 17.136 35.883 17.136C35.9857 17.136 36.0697 17.1687 36.135 17.234C36.2004 17.2993 36.233 17.3833 36.233 17.486V18.746C36.233 18.8393 36.2004 18.9187 36.135 18.984C36.0697 19.0493 35.9904 19.0867 35.897 19.096C35.169 19.1427 34.6604 19.544 34.371 20.3C34.0817 21.0467 33.937 22.1713 33.937 23.674C33.937 25.1767 34.0817 26.306 34.371 27.062C34.6604 27.818 35.169 28.2193 35.897 28.266C35.9904 28.2753 36.0697 28.3127 36.135 28.378C36.2004 28.4433 36.233 28.5227 36.233 28.616V29.876C36.233 29.9787 36.2004 30.0627 36.135 30.128C36.0697 30.1933 35.9857 30.226 35.883 30.226ZM40.9967 28.14C39.7087 28.1307 38.7287 27.79 38.0567 27.118C37.3847 26.446 37.016 25.5593 36.9507 24.458C36.932 23.954 36.9227 23.5013 36.9227 23.1C36.9227 22.6893 36.932 22.2227 36.9507 21.7C36.988 21 37.1607 20.3793 37.4687 19.838C37.786 19.2873 38.2387 18.8533 38.8267 18.536C39.424 18.2187 40.1473 18.06 40.9967 18.06C41.846 18.06 42.5693 18.2187 43.1667 18.536C43.764 18.8533 44.2167 19.2873 44.5247 19.838C44.842 20.3793 45.0193 21 45.0567 21.7C45.0753 21.9613 45.0847 22.428 45.0847 23.1C45.0847 23.7533 45.0753 24.206 45.0567 24.458C44.9913 25.5593 44.6227 26.446 43.9507 27.118C43.2787 27.79 42.294 28.1307 40.9967 28.14ZM40.9967 26.026C41.4353 26.026 41.762 25.886 41.9767 25.606C42.1913 25.3167 42.308 24.9107 42.3267 24.388C42.3453 24.1173 42.3547 23.6787 42.3547 23.072C42.3547 22.4653 42.3453 22.036 42.3267 21.784C42.308 21.28 42.1913 20.8833 41.9767 20.594C41.762 20.2953 41.4353 20.146 40.9967 20.146C40.1567 20.146 39.7133 20.692 39.6667 21.784C39.6573 22.036 39.6527 22.4653 39.6527 23.072C39.6527 23.6787 39.6573 24.1173 39.6667 24.388C39.7133 25.48 40.1567 26.026 40.9967 26.026ZM48.201 28C48.117 28 48.047 27.972 47.991 27.916C47.935 27.8507 47.907 27.776 47.907 27.692C47.907 27.6267 47.9256 27.566 47.963 27.51L49.923 24.836C49.8016 24.864 49.6756 24.8733 49.545 24.864C48.9756 24.8267 48.4343 24.6727 47.921 24.402C47.4076 24.122 46.9876 23.7393 46.661 23.254C46.3436 22.7593 46.185 22.1993 46.185 21.574C46.185 20.958 46.339 20.384 46.647 19.852C46.9643 19.3107 47.4263 18.8767 48.033 18.55C48.649 18.2233 49.3863 18.06 50.245 18.06C51.113 18.06 51.8596 18.2093 52.485 18.508C53.1103 18.8067 53.5816 19.2173 53.899 19.74C54.2256 20.2533 54.389 20.832 54.389 21.476C54.389 21.9893 54.2816 22.4607 54.067 22.89C53.8616 23.31 53.549 23.8047 53.129 24.374L52.877 24.724L50.679 27.72C50.5483 27.9067 50.3803 28 50.175 28H48.201ZM50.273 22.96C50.6836 22.96 51.0196 22.834 51.281 22.582C51.5516 22.33 51.687 21.9893 51.687 21.56C51.687 21.1307 51.5516 20.79 51.281 20.538C51.0103 20.286 50.6743 20.16 50.273 20.16C49.8623 20.16 49.5216 20.286 49.251 20.538C48.9896 20.79 48.859 21.1307 48.859 21.56C48.859 21.9893 48.9896 22.33 49.251 22.582C49.5123 22.834 49.853 22.96 50.273 22.96ZM57.2518 28C57.1678 28 57.0978 27.972 57.0418 27.916C56.9858 27.8507 56.9578 27.776 56.9578 27.692C56.9578 27.6267 56.9764 27.566 57.0138 27.51L58.9738 24.836C58.8524 24.864 58.7264 24.8733 58.5958 24.864C58.0264 24.8267 57.4851 24.6727 56.9718 24.402C56.4584 24.122 56.0384 23.7393 55.7118 23.254C55.3944 22.7593 55.2358 22.1993 55.2358 21.574C55.2358 20.958 55.3898 20.384 55.6978 19.852C56.0151 19.3107 56.4771 18.8767 57.0838 18.55C57.6998 18.2233 58.4371 18.06 59.2958 18.06C60.1638 18.06 60.9104 18.2093 61.5358 18.508C62.1611 18.8067 62.6324 19.2173 62.9498 19.74C63.2764 20.2533 63.4398 20.832 63.4398 21.476C63.4398 21.9893 63.3324 22.4607 63.1178 22.89C62.9124 23.31 62.5998 23.8047 62.1798 24.374L61.9278 24.724L59.7298 27.72C59.5991 27.9067 59.4311 28 59.2258 28H57.2518ZM59.3238 22.96C59.7344 22.96 60.0704 22.834 60.3318 22.582C60.6024 22.33 60.7378 21.9893 60.7378 21.56C60.7378 21.1307 60.6024 20.79 60.3318 20.538C60.0611 20.286 59.7251 20.16 59.3238 20.16C58.9131 20.16 58.5724 20.286 58.3018 20.538C58.0404 20.79 57.9098 21.1307 57.9098 21.56C57.9098 21.9893 58.0404 22.33 58.3018 22.582C58.5631 22.834 58.9038 22.96 59.3238 22.96ZM64.4161 30.226C64.3228 30.226 64.2388 30.1933 64.1641 30.128C64.0988 30.0627 64.0661 29.9787 64.0661 29.876V28.616C64.0661 28.5227 64.0988 28.4433 64.1641 28.378C64.2295 28.3127 64.3088 28.2753 64.4021 28.266C65.1395 28.2193 65.6481 27.8227 65.9281 27.076C66.2175 26.32 66.3621 25.186 66.3621 23.674C66.3621 22.1713 66.2175 21.0467 65.9281 20.3C65.6481 19.544 65.1395 19.1427 64.4021 19.096C64.3088 19.0867 64.2295 19.0493 64.1641 18.984C64.0988 18.9187 64.0661 18.8393 64.0661 18.746V17.486C64.0661 17.3833 64.0988 17.2993 64.1641 17.234C64.2388 17.1687 64.3228 17.136 64.4161 17.136C67.2161 17.136 68.6161 19.3153 68.6161 23.674C68.6161 28.042 67.2161 30.226 64.4161 30.226ZM74.0713 28C73.9873 28 73.9173 27.972 73.8613 27.916C73.8053 27.8507 73.7773 27.776 73.7773 27.692C73.7773 27.6453 73.7867 27.6033 73.8053 27.566L77.0253 20.398H72.8673C72.7647 20.398 72.676 20.3653 72.6013 20.3C72.536 20.2253 72.5033 20.1367 72.5033 20.034V18.564C72.5033 18.4613 72.536 18.3773 72.6013 18.312C72.676 18.2373 72.7647 18.2 72.8673 18.2H79.4893C79.592 18.2 79.676 18.2373 79.7413 18.312C79.816 18.3773 79.8533 18.4613 79.8533 18.564V19.866C79.8533 20.034 79.83 20.1787 79.7833 20.3C79.7367 20.4213 79.7087 20.4913 79.6993 20.51L76.4793 27.664C76.3767 27.888 76.2087 28 75.9753 28H74.0713ZM84.9928 28.14C83.7048 28.1307 82.7248 27.79 82.0528 27.118C81.3808 26.446 81.0121 25.5593 80.9468 24.458C80.9281 23.954 80.9188 23.5013 80.9188 23.1C80.9188 22.6893 80.9281 22.2227 80.9468 21.7C80.9841 21 81.1568 20.3793 81.4648 19.838C81.7821 19.2873 82.2348 18.8533 82.8228 18.536C83.4201 18.2187 84.1434 18.06 84.9928 18.06C85.8421 18.06 86.5654 18.2187 87.1628 18.536C87.7601 18.8533 88.2128 19.2873 88.5208 19.838C88.8381 20.3793 89.0154 21 89.0528 21.7C89.0714 21.9613 89.0808 22.428 89.0808 23.1C89.0808 23.7533 89.0714 24.206 89.0528 24.458C88.9874 25.5593 88.6188 26.446 87.9468 27.118C87.2748 27.79 86.2901 28.1307 84.9928 28.14ZM84.9928 26.026C85.4314 26.026 85.7581 25.886 85.9728 25.606C86.1874 25.3167 86.3041 24.9107 86.3228 24.388C86.3414 24.1173 86.3508 23.6787 86.3508 23.072C86.3508 22.4653 86.3414 22.036 86.3228 21.784C86.3041 21.28 86.1874 20.8833 85.9728 20.594C85.7581 20.2953 85.4314 20.146 84.9928 20.146C84.1528 20.146 83.7094 20.692 83.6628 21.784C83.6534 22.036 83.6488 22.4653 83.6488 23.072C83.6488 23.6787 83.6534 24.1173 83.6628 24.388C83.7094 25.48 84.1528 26.026 84.9928 26.026ZM94.3111 28.154C93.4617 28.154 92.7291 28.0187 92.1131 27.748C91.5064 27.4773 91.0444 27.118 90.7271 26.67C90.4191 26.222 90.2557 25.732 90.2371 25.2C90.2371 25.116 90.2651 25.046 90.3211 24.99C90.3771 24.934 90.4471 24.906 90.5311 24.906H92.5051C92.7291 24.906 92.8831 24.9947 92.9671 25.172C93.0977 25.48 93.2704 25.704 93.4851 25.844C93.7091 25.984 93.9844 26.054 94.3111 26.054C94.7124 26.054 95.0437 25.9327 95.3051 25.69C95.5757 25.4473 95.7111 25.1067 95.7111 24.668C95.7111 24.2853 95.5804 23.968 95.3191 23.716C95.0577 23.464 94.7217 23.338 94.3111 23.338C94.0777 23.338 93.8911 23.3707 93.7511 23.436C93.6111 23.492 93.4757 23.5713 93.3451 23.674C93.2051 23.786 93.0837 23.842 92.9811 23.842H91.0351C90.9511 23.842 90.8764 23.814 90.8111 23.758C90.7551 23.6927 90.7271 23.618 90.7271 23.534L91.2451 18.62C91.2544 18.4893 91.3011 18.3867 91.3851 18.312C91.4784 18.2373 91.5857 18.2 91.7071 18.2H97.4051C97.5077 18.2 97.5917 18.2327 97.6571 18.298C97.7224 18.3633 97.7551 18.4473 97.7551 18.55V19.95C97.7551 20.0433 97.7224 20.1273 97.6571 20.202C97.5917 20.2673 97.5077 20.3 97.4051 20.3H93.3311L93.1631 22.022C93.3871 21.8633 93.6391 21.7467 93.9191 21.672C94.1991 21.588 94.5631 21.546 95.0111 21.546C95.6084 21.546 96.1684 21.6813 96.6911 21.952C97.2137 22.2133 97.6291 22.5867 97.9371 23.072C98.2544 23.5573 98.4131 24.1127 98.4131 24.738C98.4131 25.3913 98.2497 25.9793 97.9231 26.502C97.5964 27.0153 97.1204 27.4213 96.4951 27.72C95.8791 28.0093 95.1511 28.154 94.3111 28.154ZM105.726 28C105.632 28 105.548 27.9673 105.474 27.902C105.408 27.8273 105.376 27.7433 105.376 27.65V21.098L103.5 22.54C103.425 22.5867 103.355 22.61 103.29 22.61C103.178 22.61 103.08 22.554 102.996 22.442L102.128 21.322C102.09 21.2567 102.072 21.1867 102.072 21.112C102.072 20.9813 102.123 20.8787 102.226 20.804L105.474 18.298C105.567 18.2327 105.674 18.2 105.796 18.2H107.644C107.746 18.2 107.83 18.2327 107.896 18.298C107.97 18.3633 108.008 18.4473 108.008 18.55V27.65C108.008 27.7527 107.97 27.8367 107.896 27.902C107.83 27.9673 107.746 28 107.644 28H105.726ZM114.334 28C114.241 28 114.157 27.9673 114.082 27.902C114.017 27.8273 113.984 27.7433 113.984 27.65V26.11H109.644C109.551 26.11 109.467 26.0773 109.392 26.012C109.327 25.9373 109.294 25.8533 109.294 25.76V24.346C109.294 24.206 109.346 24.066 109.448 23.926L113.508 18.438C113.639 18.2793 113.812 18.2 114.026 18.2H116.154C116.257 18.2 116.341 18.2327 116.406 18.298C116.481 18.3633 116.518 18.4473 116.518 18.55V23.94H117.75C117.862 23.94 117.951 23.9773 118.016 24.052C118.082 24.1173 118.114 24.1967 118.114 24.29V25.76C118.114 25.8533 118.082 25.9373 118.016 26.012C117.951 26.0773 117.867 26.11 117.764 26.11H116.518V27.65C116.518 27.7527 116.481 27.8367 116.406 27.902C116.341 27.9673 116.257 28 116.154 28H114.334ZM111.786 24.038H114.04V20.888L111.786 24.038ZM125.358 28C125.265 28 125.181 27.9673 125.106 27.902C125.041 27.8273 125.008 27.7433 125.008 27.65V21.098L123.132 22.54C123.058 22.5867 122.988 22.61 122.922 22.61C122.81 22.61 122.712 22.554 122.628 22.442L121.76 21.322C121.723 21.2567 121.704 21.1867 121.704 21.112C121.704 20.9813 121.756 20.8787 121.858 20.804L125.106 18.298C125.2 18.2327 125.307 18.2 125.428 18.2H127.276C127.379 18.2 127.463 18.2327 127.528 18.298C127.603 18.3633 127.64 18.4473 127.64 18.55V27.65C127.64 27.7527 127.603 27.8367 127.528 27.902C127.463 27.9673 127.379 28 127.276 28H125.358ZM133.295 28.14C132.39 28.14 131.624 28.0047 130.999 27.734C130.374 27.454 129.907 27.0807 129.599 26.614C129.3 26.1473 129.151 25.6247 129.151 25.046C129.151 24.5607 129.272 24.122 129.515 23.73C129.767 23.3287 130.094 23.0207 130.495 22.806C129.832 22.3767 129.501 21.7327 129.501 20.874C129.501 20.0433 129.818 19.3667 130.453 18.844C131.097 18.3213 132.044 18.06 133.295 18.06C134.536 18.06 135.47 18.3213 136.095 18.844C136.73 19.3573 137.047 20.0293 137.047 20.86C137.047 21.7093 136.73 22.358 136.095 22.806C136.506 23.002 136.832 23.3007 137.075 23.702C137.327 24.1033 137.453 24.556 137.453 25.06C137.453 25.6387 137.299 26.1613 136.991 26.628C136.683 27.0853 136.216 27.454 135.591 27.734C134.966 28.0047 134.2 28.14 133.295 28.14ZM133.295 22.078C133.687 22.0687 134.009 21.966 134.261 21.77C134.513 21.5647 134.639 21.308 134.639 21C134.639 20.6827 134.513 20.426 134.261 20.23C134.009 20.0247 133.687 19.922 133.295 19.922C132.894 19.922 132.567 20.0247 132.315 20.23C132.072 20.426 131.951 20.6827 131.951 21C131.951 21.3173 132.072 21.5787 132.315 21.784C132.567 21.98 132.894 22.078 133.295 22.078ZM133.295 26.292C133.734 26.292 134.093 26.18 134.373 25.956C134.662 25.732 134.807 25.4333 134.807 25.06C134.807 24.6867 134.662 24.388 134.373 24.164C134.093 23.94 133.734 23.828 133.295 23.828C132.856 23.828 132.492 23.94 132.203 24.164C131.914 24.388 131.769 24.6867 131.769 25.06C131.769 25.4333 131.914 25.732 132.203 25.956C132.492 26.18 132.856 26.292 133.295 26.292Z" fill="#232F3C"/>
</svg>
